<?xml version="1.0" standalone="no"?>
<!DOCTYPE svg PUBLIC "-//W3C//DTD SVG 20010904//EN"
 "http://www.w3.org/TR/2001/REC-SVG-20010904/DTD/svg10.dtd">
<svg version="1.0" xmlns="http://www.w3.org/2000/svg"
 width="1024.000000pt" height="1024.000000pt" viewBox="0 0 1024.000000 1024.000000"
 preserveAspectRatio="xMidYMid meet">
<metadata>
Created by potrace 1.16, written by Peter Selinger 2001-2019
</metadata>
<g transform="translate(0.000000,1024.000000) scale(0.100000,-0.100000)"
fill="#000000" stroke="none">
<path d="M5085 8509 c-119 -59 -215 -234 -328 -601 -59 -188 -136 -504 -126
-512 2 -2 54 5 114 16 61 10 148 22 193 26 l84 7 70 213 c38 116 74 212 78
212 5 0 32 -73 60 -162 29 -90 59 -185 68 -213 l17 -49 65 -3 c76 -4 283 -31
307 -40 14 -6 15 -1 9 38 -26 163 -120 518 -188 704 -74 204 -156 327 -243
366 -53 24 -129 23 -180 -2z"/>
<path d="M8027 8452 c-2 -4 -14 -40 -26 -81 -26 -87 -58 -140 -103 -174 -32
-24 -143 -71 -183 -79 -23 -4 -34 -38 -12 -38 29 0 141 -42 179 -67 51 -35 94
-98 122 -181 27 -79 50 -92 61 -35 12 64 60 156 99 191 42 36 127 78 182 88
52 10 40 34 -26 54 -149 45 -227 130 -255 283 -6 33 -29 56 -38 39z"/>
<path d="M6237 8413 c-2 -4 -12 -32 -21 -60 -27 -81 -85 -138 -171 -168 -38
-13 -71 -30 -73 -37 -2 -9 23 -22 70 -37 89 -28 144 -80 174 -161 10 -29 24
-55 31 -57 6 -2 21 21 32 53 12 31 28 65 35 76 24 34 96 80 154 98 31 10 58
22 59 27 2 6 -29 22 -70 37 -93 34 -140 79 -172 167 -21 60 -37 80 -48 62z"/>
<path d="M4266 8178 c-16 -51 -42 -117 -55 -137 -20 -31 -72 -63 -149 -91 -34
-13 -61 -28 -59 -33 2 -6 32 -20 68 -31 81 -26 144 -86 178 -169 13 -32 29
-56 35 -54 6 2 20 28 31 58 28 79 93 140 178 168 37 13 67 26 67 31 0 5 -24
16 -52 25 -116 38 -172 93 -199 198 -12 44 -35 62 -43 35z"/>
<path d="M2875 7764 c-130 -20 -234 -93 -287 -202 -31 -62 -33 -74 -34 -168 0
-101 0 -101 -39 -154 -51 -69 -64 -110 -65 -201 0 -93 29 -159 98 -220 89 -80
182 -103 296 -74 37 9 68 15 69 14 41 -69 199 -299 205 -298 7 1 175 195 180
210 3 8 -55 99 -158 245 -47 66 -51 76 -54 141 -4 79 -28 142 -75 195 -17 20
-31 38 -31 42 0 3 15 15 33 26 90 55 405 -14 730 -160 l128 -58 122 63 c67 34
173 82 235 105 61 24 112 46 112 50 0 3 -19 16 -42 28 -24 12 -81 42 -128 68
-257 141 -670 286 -939 330 -90 15 -305 26 -356 18z m-35 -593 c64 -46 86
-120 54 -186 -21 -44 -54 -65 -114 -72 -43 -5 -55 -2 -91 21 -62 42 -86 115
-55 174 43 83 137 112 206 63z"/>
<path d="M7190 7760 c-362 -50 -771 -196 -1107 -394 -35 -20 -63 -40 -63 -45
0 -4 26 -15 58 -25 76 -24 288 -116 352 -153 l52 -30 103 48 c292 137 652 214
743 159 106 -65 77 -255 -86 -580 l-82 -164 30 -36 c52 -61 145 -183 191 -250
24 -36 47 -67 51 -70 10 -7 60 74 127 209 295 588 327 1077 84 1254 -78 56
-152 78 -278 82 -60 2 -139 0 -175 -5z"/>
<path d="M8324 7343 c-13 -59 -56 -169 -79 -205 -31 -47 -98 -86 -194 -114
-91 -26 -104 -47 -39 -64 201 -52 257 -108 308 -307 17 -68 34 -54 70 56 22
69 42 112 66 140 39 45 127 91 212 111 73 17 67 35 -20 61 -163 49 -215 101
-264 269 -24 82 -48 103 -60 53z"/>
<path d="M2073 7318 c-4 -7 -17 -33 -29 -58 -29 -63 -65 -94 -135 -120 -33
-13 -58 -28 -56 -34 2 -6 25 -19 51 -28 25 -10 58 -25 72 -35 30 -19 70 -79
80 -117 11 -44 38 -32 63 29 26 62 64 97 138 125 26 10 48 23 48 30 0 6 -26
22 -58 35 -76 30 -91 45 -127 122 -16 34 -32 63 -34 63 -3 0 -8 -6 -13 -12z"/>
<path d="M4910 7255 c-473 -64 -899 -237 -1245 -506 -107 -83 -293 -265 -372
-364 -26 -33 -56 -69 -66 -80 -56 -62 -204 -305 -263 -432 -65 -139 -68 -146
-107 -268 -69 -214 -102 -371 -114 -547 -3 -54 -10 -98 -14 -98 -12 0 -177
-80 -244 -118 -97 -56 -156 -97 -256 -176 l-94 -75 -18 22 c-30 37 -66 113
-77 162 -14 62 7 139 53 202 81 109 239 238 416 338 l99 56 12 62 c15 77 69
248 116 363 19 48 32 89 29 92 -7 7 -232 -105 -380 -189 -369 -208 -661 -487
-735 -701 -68 -199 -16 -392 163 -601 l49 -57 -28 -36 c-218 -272 -311 -466
-322 -670 -6 -119 6 -179 54 -282 55 -115 188 -238 325 -300 213 -97 438 -127
877 -119 292 6 379 13 695 57 l157 22 73 -49 c107 -74 338 -195 490 -257 21
-9 36 -20 33 -24 -13 -21 -462 -186 -710 -262 -241 -73 -424 -99 -490 -68 -72
32 -81 142 -30 353 5 20 2 20 -198 17 -121 -3 -206 -8 -209 -14 -29 -46 -39
-417 -13 -513 81 -313 395 -364 1018 -165 225 72 562 213 1121 467 629 287
1199 486 1875 657 606 153 1009 226 1245 226 167 0 255 -20 313 -73 67 -62
-26 -190 -237 -327 -28 -18 -51 -35 -51 -37 0 -9 81 -123 87 -123 13 0 101 55
169 107 92 68 156 141 197 223 29 58 32 73 32 155 0 80 -3 95 -27 136 -36 60
-88 105 -163 141 -105 49 -187 61 -385 55 -185 -5 -277 -17 -560 -73 -283 -55
-411 -85 -1070 -254 -84 -22 -155 -38 -156 -37 -1 1 52 49 118 107 67 58 167
149 223 203 57 53 106 97 111 97 5 0 18 -12 29 -27 l22 -26 84 21 c288 72 425
103 509 116 159 24 335 57 342 64 16 16 102 246 133 357 63 225 84 368 92 615
17 551 -160 1080 -515 1540 -86 111 -286 315 -385 393 -331 261 -751 444
-1172 512 -140 23 -516 28 -655 10z m610 -241 c707 -101 1337 -558 1659 -1201
225 -451 278 -980 150 -1510 -33 -140 -19 -128 -148 -128 l-111 -1 -2 275 c-2
152 -3 300 -3 329 0 28 -2 52 -5 52 -3 0 -13 -12 -22 -27 -10 -16 -30 -41 -45
-58 -16 -16 -35 -40 -43 -52 -53 -77 -214 -262 -223 -256 -7 4 -8 0 -4 -11 4
-9 3 -15 -1 -12 -4 2 -23 -14 -42 -36 -60 -69 -162 -179 -231 -247 -99 -100
-249 -241 -254 -241 -3 0 -60 -48 -128 -108 -184 -162 -368 -307 -542 -427
-38 -27 -97 -67 -130 -90 -159 -110 -417 -261 -625 -365 -147 -74 -152 -74
-345 -15 -156 47 -225 75 -368 146 -389 194 -699 501 -892 885 -35 68 -69 144
-76 169 -15 51 -28 55 -104 30 -91 -32 -353 -94 -456 -109 -122 -18 -274 -21
-369 -6 -79 13 -160 40 -160 54 0 6 30 44 67 84 l66 73 121 -6 c129 -7 250 3
446 36 130 23 374 81 457 110 31 10 62 19 69 19 7 0 26 -41 44 -96 126 -390
363 -710 674 -913 l79 -51 87 0 c209 0 388 32 567 102 108 41 358 165 505 250
50 29 92 47 99 42 7 -4 9 -3 5 4 -4 6 13 22 41 38 27 15 96 56 154 91 58 35
109 63 113 63 4 0 12 5 19 10 7 6 39 28 72 49 33 21 134 88 225 148 91 60 172
107 179 105 8 -3 11 0 7 6 -3 6 -2 13 4 17 7 4 10 197 10 566 l0 559 129 0
130 0 176 -220 c97 -121 181 -223 187 -226 5 -3 15 1 21 9 300 381 347 447
341 474 -29 135 -133 370 -226 513 -398 615 -1147 970 -1876 889 -616 -68
-1134 -377 -1468 -876 -132 -197 -249 -469 -294 -686 -22 -103 -40 -248 -40
-319 l0 -47 67 23 67 22 27 69 c73 179 215 305 399 351 92 23 263 15 345 -16
140 -53 257 -157 321 -285 174 -352 -31 -762 -421 -841 -183 -37 -390 31 -529
175 -28 28 -47 53 -45 56 3 3 68 27 145 55 l139 49 55 -27 c77 -38 183 -38
255 0 112 59 169 148 170 268 0 62 -5 85 -28 132 -81 166 -288 218 -438 110
-51 -37 -107 -116 -124 -176 l-15 -51 -173 -59 c-460 -157 -747 -237 -919
-257 -54 -6 -101 -9 -104 -6 -7 6 178 146 260 197 69 41 207 106 277 129 l36
12 7 117 c23 383 124 728 301 1024 345 576 887 946 1556 1063 206 36 483 40
699 9z m-255 -636 c26 -119 52 -143 190 -173 44 -10 84 -21 88 -25 5 -4 -35
-17 -89 -30 -148 -34 -164 -54 -204 -252 -6 -32 -15 -58 -18 -58 -4 0 -16 45
-25 100 -29 155 -59 186 -210 216 -48 10 -84 20 -80 24 4 4 46 17 92 29 148
38 161 51 191 191 27 124 31 133 40 90 5 -19 16 -70 25 -112z m-580 67 c31
-30 32 -62 3 -92 -27 -29 -65 -29 -95 -1 -29 27 -29 65 -1 95 28 30 63 29 93
-2z m1203 9 c27 -19 30 -78 5 -106 -22 -24 -75 -23 -98 2 -57 63 23 153 93
104z m-1613 -216 c14 -64 31 -85 80 -97 25 -6 45 -15 45 -20 0 -11 -25 -21
-49 -21 -26 0 -71 -38 -71 -60 0 -9 -6 -23 -13 -29 -11 -9 -16 -3 -26 30 -12
40 -27 51 -83 63 -42 9 -34 32 12 40 42 7 61 30 75 94 3 17 10 32 15 32 5 0
12 -15 15 -32z m1593 -240 c19 -109 41 -151 93 -176 24 -12 74 -26 112 -33 96
-18 94 -20 -58 -59 -77 -19 -102 -42 -125 -117 -12 -37 -24 -87 -27 -110 -3
-24 -9 -43 -12 -43 -4 0 -13 33 -19 73 -18 105 -42 152 -91 177 -32 16 -159
50 -187 50 -3 0 -3 4 0 9 3 4 34 14 68 21 35 7 84 22 110 32 57 24 81 67 99
176 7 39 15 72 19 72 3 0 12 -33 18 -72z m-1594 -61 c10 -52 31 -74 86 -87 58
-14 57 -26 -6 -41 -50 -13 -72 -37 -81 -91 -7 -47 -19 -49 -27 -4 -10 51 -41
85 -92 97 -53 14 -53 30 1 41 49 11 69 28 85 78 16 49 26 51 34 7z m2245 -278
c9 -29 20 -40 52 -52 44 -17 45 -31 2 -42 -39 -10 -52 -22 -59 -61 -7 -40 -22
-53 -30 -27 -21 64 -27 72 -67 86 -52 17 -57 33 -15 42 33 7 68 31 68 46 0 4
5 20 10 35 12 32 23 24 39 -27z m-1024 -325 c118 -29 230 -120 286 -232 30
-60 34 -78 37 -167 6 -156 -31 -252 -125 -321 -21 -15 -42 -31 -47 -35 -4 -4
5 -31 21 -61 47 -84 128 -229 157 -278 14 -25 26 -48 26 -52 0 -5 -71 -8 -157
-8 l-158 0 -39 68 c-21 37 -59 102 -84 145 l-46 77 -143 0 -143 0 0 -145 0
-145 -150 0 -150 0 0 590 0 591 328 -6 c235 -5 344 -11 387 -21z m-915 -1296
c0 -42 39 -136 62 -153 12 -8 52 -22 90 -32 37 -10 68 -20 68 -24 0 -4 -33
-15 -72 -25 -89 -21 -120 -50 -136 -126 -6 -29 -14 -69 -18 -88 -7 -34 -8 -32
-20 32 -24 129 -54 161 -176 188 -32 7 -58 17 -58 21 0 5 17 11 38 15 20 4 61
15 90 26 61 23 83 55 103 156 12 63 29 69 29 10z m-1625 -245 c67 -131 187
-309 279 -415 l75 -87 -32 -6 c-196 -33 -608 -60 -787 -50 -314 16 -494 73
-599 192 -73 82 -94 163 -71 283 9 48 57 170 67 170 2 0 23 -10 46 -22 89 -45
156 -59 317 -65 180 -6 300 8 505 61 72 19 135 35 140 35 6 1 33 -43 60 -96z"/>
<path d="M6400 4641 c0 -200 6 -266 19 -229 9 25 180 170 192 162 23 -14 -17
45 -108 159 -51 64 -96 117 -98 117 -3 0 -5 -94 -5 -209z"/>
<path d="M5080 4909 l0 -170 158 3 c135 3 163 6 197 24 47 24 85 89 85 144 0
59 -38 122 -90 148 -40 20 -58 22 -197 22 l-153 0 0 -171z"/>
<path d="M2376 6558 c-35 -149 -94 -216 -223 -253 -95 -27 -105 -47 -36 -64
157 -40 233 -120 265 -279 15 -74 37 -67 60 18 9 36 24 82 32 102 32 75 109
130 224 159 72 18 65 37 -24 64 -137 42 -186 94 -225 240 -29 112 -48 115 -73
13z"/>
<path d="M8131 6262 c-35 -70 -63 -94 -132 -117 -28 -9 -48 -22 -47 -27 2 -6
26 -19 54 -29 63 -24 108 -67 130 -125 9 -24 20 -44 24 -44 12 0 28 23 35 51
12 48 62 96 118 114 83 28 83 37 -5 69 -52 19 -103 72 -113 117 -4 15 -13 33
-20 39 -11 9 -20 0 -44 -48z"/>
<path d="M7600 5884 c0 -2 5 -12 10 -22 35 -60 112 -299 154 -474 4 -17 21
-35 53 -53 238 -138 454 -324 486 -419 44 -131 8 -225 -148 -381 -105 -105
-217 -197 -347 -284 -46 -31 -78 -59 -78 -69 0 -13 -78 -255 -104 -322 -5 -13
10 -15 115 -12 118 4 122 5 182 40 104 60 237 151 337 231 434 347 571 642
436 937 -89 195 -390 462 -732 652 -130 72 -364 185 -364 176z"/>
<path d="M7005 3033 c-33 -8 -150 -37 -260 -64 -188 -46 -486 -126 -492 -132
-1 -2 20 -31 48 -66 28 -34 47 -66 43 -71 -5 -4 -80 -36 -168 -70 l-158 -61
-27 23 c-14 12 -31 27 -36 33 -6 5 -31 29 -56 52 l-44 43 -185 -64 c-293 -101
-361 -127 -775 -300 -115 -49 -214 -92 -218 -96 -10 -9 57 -253 107 -392 130
-357 235 -492 386 -492 97 -1 190 68 263 194 78 135 223 543 280 790 6 23 17
28 110 51 l104 26 74 -49 c457 -302 1075 -510 1391 -470 111 14 185 47 250
114 58 59 82 125 82 229 1 65 5 80 26 110 47 63 65 118 65 199 0 89 -26 150
-90 215 -67 68 -124 90 -230 90 -106 0 -163 -23 -232 -92 -61 -64 -86 -122
-91 -218 -4 -76 -2 -83 32 -149 20 -38 36 -70 36 -72 0 -8 -99 -4 -156 7 -163
29 -513 171 -614 248 l-25 20 25 9 c91 35 366 213 489 316 46 39 93 79 105 88
25 21 20 21 -59 1z m562 -353 c44 -26 66 -64 67 -113 1 -87 -59 -147 -146
-147 -43 0 -54 5 -90 38 -35 33 -41 45 -46 90 -5 59 15 100 64 133 38 25 109
25 151 -1z m-2273 -365 c-9 -46 -71 -233 -98 -300 l-24 -59 -17 39 c-23 54
-101 284 -109 321 l-7 30 131 -1 130 0 -6 -30z"/>
<path d="M6217 2029 c-26 -71 -75 -122 -145 -149 -31 -12 -67 -26 -79 -31 -13
-5 -23 -13 -23 -18 0 -9 99 -51 121 -51 25 0 107 -98 123 -148 10 -28 21 -54
26 -57 11 -7 25 14 39 57 28 87 83 135 199 173 29 9 51 22 49 28 -2 6 -35 21
-74 34 -85 29 -141 82 -170 162 -23 66 -43 66 -66 0z"/>
<path d="M4294 1944 c-19 -58 -68 -144 -90 -159 -14 -9 -53 -27 -87 -40 -34
-12 -62 -29 -62 -36 0 -7 28 -23 62 -34 34 -12 73 -29 87 -38 28 -19 71 -87
81 -129 11 -44 31 -33 54 32 27 73 70 111 158 141 35 11 63 24 63 29 0 5 -31
20 -70 35 -81 31 -130 80 -152 152 -15 54 -35 74 -44 47z"/>
</g>
</svg>
